<svg xmlns="http://www.w3.org/2000/svg" xmlns:xlink="http://www.w3.org/1999/xlink" contentStyleType="text/css" height="557px" preserveAspectRatio="none" style="width:1231px;height:557px;background:#FFFFFF;" version="1.1" viewBox="0 0 1231 557" width="1231px" zoomAndPan="magnify"><defs/><g><line style="stroke:#181818;stroke-width:0.5;stroke-dasharray:5.0,5.0;" x1="28" x2="28" y1="81.2969" y2="476.7578"/><line style="stroke:#181818;stroke-width:0.5;stroke-dasharray:5.0,5.0;" x1="330.9937" x2="330.9937" y1="81.2969" y2="476.7578"/><line style="stroke:#181818;stroke-width:0.5;stroke-dasharray:5.0,5.0;" x1="610.6699" x2="610.6699" y1="81.2969" y2="476.7578"/><line style="stroke:#181818;stroke-width:0.5;stroke-dasharray:5.0,5.0;" x1="883.5894" x2="883.5894" y1="81.2969" y2="476.7578"/><line style="stroke:#181818;stroke-width:0.5;stroke-dasharray:5.0,5.0;" x1="1170.0317" x2="1170.0317" y1="81.2969" y2="476.7578"/><text fill="#000000" font-family="sans-serif" font-size="14" lengthAdjust="spacing" textLength="40.5303" x="5" y="77.9951">Client</text><ellipse cx="28.2651" cy="13.5" fill="#E2E2F0" rx="8" ry="8" style="stroke:#181818;stroke-width:0.5;"/><path d="M28.2651,21.5 L28.2651,48.5 M15.2651,29.5 L41.2651,29.5 M28.2651,48.5 L15.2651,63.5 M28.2651,48.5 L41.2651,63.5 " fill="none" style="stroke:#181818;stroke-width:0.5;"/><text fill="#000000" font-family="sans-serif" font-size="14" lengthAdjust="spacing" textLength="40.5303" x="5" y="488.7529">Client</text><ellipse cx="28.2651" cy="500.5547" fill="#E2E2F0" rx="8" ry="8" style="stroke:#181818;stroke-width:0.5;"/><path d="M28.2651,508.5547 L28.2651,535.5547 M15.2651,516.5547 L41.2651,516.5547 M28.2651,535.5547 L15.2651,550.5547 M28.2651,535.5547 L41.2651,550.5547 " fill="none" style="stroke:#181818;stroke-width:0.5;"/><rect fill="#E2E2F0" height="30.2969" rx="2.5" ry="2.5" style="stroke:#181818;stroke-width:0.5;" width="120.5654" x="270.9937" y="50"/><text fill="#000000" font-family="sans-serif" font-size="14" lengthAdjust="spacing" textLength="106.5654" x="277.9937" y="69.9951">Client AO Node</text><rect fill="#E2E2F0" height="30.2969" rx="2.5" ry="2.5" style="stroke:#181818;stroke-width:0.5;" width="120.5654" x="270.9937" y="475.7578"/><text fill="#000000" font-family="sans-serif" font-size="14" lengthAdjust="spacing" textLength="106.5654" x="277.9937" y="495.7529">Client AO Node</text><rect fill="#E2E2F0" height="30.2969" rx="2.5" ry="2.5" style="stroke:#181818;stroke-width:0.5;" width="130.5801" x="545.6699" y="50"/><text fill="#000000" font-family="sans-serif" font-size="14" lengthAdjust="spacing" textLength="116.5801" x="552.6699" y="69.9951">Main AO Process</text><rect fill="#E2E2F0" height="30.2969" rx="2.5" ry="2.5" style="stroke:#181818;stroke-width:0.5;" width="130.5801" x="545.6699" y="475.7578"/><text fill="#000000" font-family="sans-serif" font-size="14" lengthAdjust="spacing" textLength="116.5801" x="552.6699" y="495.7529">Main AO Process</text><rect fill="#E2E2F0" height="30.2969" rx="2.5" ry="2.5" style="stroke:#181818;stroke-width:0.5;" width="163.8574" x="802.5894" y="50"/><text fill="#000000" font-family="sans-serif" font-size="14" lengthAdjust="spacing" textLength="149.8574" x="809.5894" y="69.9951">Respondent AO Node</text><rect fill="#E2E2F0" height="30.2969" rx="2.5" ry="2.5" style="stroke:#181818;stroke-width:0.5;" width="163.8574" x="802.5894" y="475.7578"/><text fill="#000000" font-family="sans-serif" font-size="14" lengthAdjust="spacing" textLength="149.8574" x="809.5894" y="495.7529">Respondent AO Node</text><rect fill="#E2E2F0" height="30.2969" rx="2.5" ry="2.5" style="stroke:#181818;stroke-width:0.5;" width="97.8223" x="1122.0317" y="50"/><text fill="#000000" font-family="sans-serif" font-size="14" lengthAdjust="spacing" textLength="83.8223" x="1129.0317" y="69.9951">Respondent</text><rect fill="#E2E2F0" height="30.2969" rx="2.5" ry="2.5" style="stroke:#181818;stroke-width:0.5;" width="97.8223" x="1122.0317" y="475.7578"/><text fill="#000000" font-family="sans-serif" font-size="14" lengthAdjust="spacing" textLength="83.8223" x="1129.0317" y="495.7529">Respondent</text><rect fill="#EEEEEE" height="3" style="stroke:#EEEEEE;stroke-width:1.0;" width="1224.854" x="0" y="111.8633"/><line style="stroke:#000000;stroke-width:1.0;" x1="0" x2="1224.854" y1="111.8633" y2="111.8633"/><line style="stroke:#000000;stroke-width:1.0;" x1="0" x2="1224.854" y1="114.8633" y2="114.8633"/><rect fill="#EEEEEE" height="23.1328" style="stroke:#000000;stroke-width:2.0;" width="337.1147" x="443.8696" y="101.2969"/><text fill="#000000" font-family="sans-serif" font-size="13" font-weight="bold" lengthAdjust="spacing" textLength="318.5889" x="449.8696" y="117.3638">Create Survey with Advanced Target Group</text><polygon fill="#181818" points="319.2764,151.5625,329.2764,155.5625,319.2764,159.5625,323.2764,155.5625" style="stroke:#181818;stroke-width:1.0;"/><line style="stroke:#181818;stroke-width:1.0;" x1="28.2651" x2="325.2764" y1="155.5625" y2="155.5625"/><text fill="#000000" font-family="sans-serif" font-size="13" lengthAdjust="spacing" textLength="279.0112" x="35.2651" y="150.4966">CreateSurvey(survey_data, target_criteria)</text><polygon fill="#181818" points="598.96,180.6953,608.96,184.6953,598.96,188.6953,602.96,184.6953" style="stroke:#181818;stroke-width:1.0;"/><line style="stroke:#181818;stroke-width:1.0;" x1="331.2764" x2="604.96" y1="184.6953" y2="184.6953"/><text fill="#000000" font-family="sans-serif" font-size="13" lengthAdjust="spacing" textLength="255.6836" x="338.2764" y="179.6294">Store target criteria in SurveyMetadata</text><rect fill="#EEEEEE" height="3" style="stroke:#EEEEEE;stroke-width:1.0;" width="1224.854" x="0" y="213.2617"/><line style="stroke:#000000;stroke-width:1.0;" x1="0" x2="1224.854" y1="213.2617" y2="213.2617"/><line style="stroke:#000000;stroke-width:1.0;" x1="0" x2="1224.854" y1="216.2617" y2="216.2617"/><rect fill="#EEEEEE" height="23.1328" style="stroke:#000000;stroke-width:2.0;" width="382.7544" x="421.0498" y="202.6953"/><text fill="#000000" font-family="sans-serif" font-size="13" font-weight="bold" lengthAdjust="spacing" textLength="364.2285" x="427.0498" y="218.7622">Respondent Answers Standardized Questionnaire</text><polygon fill="#181818" points="895.5181,252.9609,885.5181,256.9609,895.5181,260.9609,891.5181,256.9609" style="stroke:#181818;stroke-width:1.0;"/><line style="stroke:#181818;stroke-width:1.0;" x1="889.5181" x2="1169.9429" y1="256.9609" y2="256.9609"/><text fill="#000000" font-family="sans-serif" font-size="13" lengthAdjust="spacing" textLength="262.4248" x="901.5181" y="251.895">AnswerStandardQuestionnaire(answers)</text><line style="stroke:#181818;stroke-width:1.0;" x1="884.5181" x2="926.5181" y1="286.0938" y2="286.0938"/><line style="stroke:#181818;stroke-width:1.0;" x1="926.5181" x2="926.5181" y1="286.0938" y2="299.0938"/><line style="stroke:#181818;stroke-width:1.0;" x1="885.5181" x2="926.5181" y1="299.0938" y2="299.0938"/><polygon fill="#181818" points="895.5181,295.0938,885.5181,299.0938,895.5181,303.0938,891.5181,299.0938" style="stroke:#181818;stroke-width:1.0;"/><text fill="#000000" font-family="sans-serif" font-size="13" lengthAdjust="spacing" textLength="138.2329" x="891.5181" y="281.0278">Store answers locally</text><rect fill="#EEEEEE" height="3" style="stroke:#EEEEEE;stroke-width:1.0;" width="1224.854" x="0" y="327.6602"/><line style="stroke:#000000;stroke-width:1.0;" x1="0" x2="1224.854" y1="327.6602" y2="327.6602"/><line style="stroke:#000000;stroke-width:1.0;" x1="0" x2="1224.854" y1="330.6602" y2="330.6602"/><rect fill="#EEEEEE" height="23.1328" style="stroke:#000000;stroke-width:2.0;" width="202.7983" x="511.0278" y="317.0938"/><text fill="#000000" font-family="sans-serif" font-size="13" font-weight="bold" lengthAdjust="spacing" textLength="184.2725" x="517.0278" y="333.1606">Get Eligible Respondents</text><polygon fill="#181818" points="598.96,367.3594,608.96,371.3594,598.96,375.3594,602.96,371.3594" style="stroke:#181818;stroke-width:1.0;"/><line style="stroke:#181818;stroke-width:1.0;" x1="28.2651" x2="604.96" y1="371.3594" y2="371.3594"/><text fill="#000000" font-family="sans-serif" font-size="13" lengthAdjust="spacing" textLength="293.1855" x="35.2651" y="366.2935">GetEligibleRespondentsForSurvey(survey_id)</text><polygon fill="#181818" points="872.5181,396.4922,882.5181,400.4922,872.5181,404.4922,876.5181,400.4922" style="stroke:#181818;stroke-width:1.0;"/><line style="stroke:#181818;stroke-width:1.0;" x1="610.96" x2="878.5181" y1="400.4922" y2="400.4922"/><text fill="#000000" font-family="sans-serif" font-size="13" lengthAdjust="spacing" textLength="249.5581" x="617.96" y="395.4263">Check if answers match target criteria</text><polygon fill="#181818" points="621.96,425.625,611.96,429.625,621.96,433.625,617.96,429.625" style="stroke:#181818;stroke-width:1.0;"/><line style="stroke:#181818;stroke-width:1.0;" x1="615.96" x2="883.5181" y1="429.625" y2="429.625"/><text fill="#000000" font-family="sans-serif" font-size="13" lengthAdjust="spacing" textLength="153.3784" x="627.96" y="424.5591">Return matching status</text><polygon fill="#181818" points="39.2651,454.7578,29.2651,458.7578,39.2651,462.7578,35.2651,458.7578" style="stroke:#181818;stroke-width:1.0;"/><line style="stroke:#181818;stroke-width:1.0;" x1="33.2651" x2="609.96" y1="458.7578" y2="458.7578"/><text fill="#000000" font-family="sans-serif" font-size="13" lengthAdjust="spacing" textLength="175.519" x="45.2651" y="453.6919">List of eligible respondents</text><!--SRC=[RP3DRi8m48JlUOeL9v3Q5q1A9OHQBgK_q3lQsajODRKZUmEYJr_7TY11dAAiPxwTMLHY7Inh9YD5WqvOSOD6O99ci7Y7Dwjf0kYphFiTIzV8fXD-EAl8-wZjPcFLXdnZZRw5NiSHN9GbB1sX46nRTwGpd5WEiD17D8eqVA6hI63bRDj0MHOvvkFJ81tCCo8HfZv-TXe57q0YOASS2pd6MJ7m1KhiCeTjE0jbBVHQ24y9kIR13XVZ3eiPVoBdWnsDHgVvBqJ-RCaBMsEG0pDa7XZ2nl41mku4wH4ZznJJWbbnuxh7IHso0sghiAxFCV4gb7gkkUBlcWO-FpveFaKGzzg1zCMwyNLPpuhek1TbUI3r0xo_fFb5KOVR-zufbJDiI5fdaejD1LvGMd_PbpFFuPMzWDq3zUNSDV4_]--></g></svg>