<svg xmlns="http://www.w3.org/2000/svg" xmlns:xlink="http://www.w3.org/1999/xlink" contentStyleType="text/css" height="553px" preserveAspectRatio="none" style="width:1007px;height:553px;background:#FFFFFF;" version="1.1" viewBox="0 0 1007 553" width="1007px" zoomAndPan="magnify"><defs/><g><line style="stroke:#181818;stroke-width:0.5;stroke-dasharray:5.0,5.0;" x1="28" x2="28" y1="81.2969" y2="472.625"/><line style="stroke:#181818;stroke-width:0.5;stroke-dasharray:5.0,5.0;" x1="105.5303" x2="105.5303" y1="81.2969" y2="472.625"/><line style="stroke:#181818;stroke-width:0.5;stroke-dasharray:5.0,5.0;" x1="537.0107" x2="537.0107" y1="81.2969" y2="472.625"/><line style="stroke:#181818;stroke-width:0.5;stroke-dasharray:5.0,5.0;" x1="760.5947" x2="760.5947" y1="81.2969" y2="472.625"/><line style="stroke:#181818;stroke-width:0.5;stroke-dasharray:5.0,5.0;" x1="912.1602" x2="912.1602" y1="81.2969" y2="472.625"/><text fill="#000000" font-family="sans-serif" font-size="14" lengthAdjust="spacing" textLength="40.5303" x="5" y="77.9951">Client</text><ellipse cx="28.2651" cy="13.5" fill="#E2E2F0" rx="8" ry="8" style="stroke:#181818;stroke-width:0.5;"/><path d="M28.2651,21.5 L28.2651,48.5 M15.2651,29.5 L41.2651,29.5 M28.2651,48.5 L15.2651,63.5 M28.2651,48.5 L41.2651,63.5 " fill="none" style="stroke:#181818;stroke-width:0.5;"/><text fill="#000000" font-family="sans-serif" font-size="14" lengthAdjust="spacing" textLength="40.5303" x="5" y="484.6201">Client</text><ellipse cx="28.2651" cy="496.4219" fill="#E2E2F0" rx="8" ry="8" style="stroke:#181818;stroke-width:0.5;"/><path d="M28.2651,504.4219 L28.2651,531.4219 M15.2651,512.4219 L41.2651,512.4219 M28.2651,531.4219 L15.2651,546.4219 M28.2651,531.4219 L41.2651,546.4219 " fill="none" style="stroke:#181818;stroke-width:0.5;"/><text fill="#000000" font-family="sans-serif" font-size="14" lengthAdjust="spacing" textLength="83.8223" x="61.5303" y="77.9951">Respondent</text><ellipse cx="106.4414" cy="13.5" fill="#E2E2F0" rx="8" ry="8" style="stroke:#181818;stroke-width:0.5;"/><path d="M106.4414,21.5 L106.4414,48.5 M93.4414,29.5 L119.4414,29.5 M106.4414,48.5 L93.4414,63.5 M106.4414,48.5 L119.4414,63.5 " fill="none" style="stroke:#181818;stroke-width:0.5;"/><text fill="#000000" font-family="sans-serif" font-size="14" lengthAdjust="spacing" textLength="83.8223" x="61.5303" y="484.6201">Respondent</text><ellipse cx="106.4414" cy="496.4219" fill="#E2E2F0" rx="8" ry="8" style="stroke:#181818;stroke-width:0.5;"/><path d="M106.4414,504.4219 L106.4414,531.4219 M93.4414,512.4219 L119.4414,512.4219 M106.4414,531.4219 L93.4414,546.4219 M106.4414,531.4219 L119.4414,546.4219 " fill="none" style="stroke:#181818;stroke-width:0.5;"/><rect fill="#E2E2F0" height="30.2969" rx="2.5" ry="2.5" style="stroke:#181818;stroke-width:0.5;" width="130.5801" x="472.0107" y="50"/><text fill="#000000" font-family="sans-serif" font-size="14" lengthAdjust="spacing" textLength="116.5801" x="479.0107" y="69.9951">Main AO Process</text><rect fill="#E2E2F0" height="30.2969" rx="2.5" ry="2.5" style="stroke:#181818;stroke-width:0.5;" width="130.5801" x="472.0107" y="471.625"/><text fill="#000000" font-family="sans-serif" font-size="14" lengthAdjust="spacing" textLength="116.5801" x="479.0107" y="491.6201">Main AO Process</text><rect fill="#E2E2F0" height="30.2969" rx="2.5" ry="2.5" style="stroke:#181818;stroke-width:0.5;" width="120.5654" x="700.5947" y="50"/><text fill="#000000" font-family="sans-serif" font-size="14" lengthAdjust="spacing" textLength="106.5654" x="707.5947" y="69.9951">Client AO Node</text><rect fill="#E2E2F0" height="30.2969" rx="2.5" ry="2.5" style="stroke:#181818;stroke-width:0.5;" width="120.5654" x="700.5947" y="471.625"/><text fill="#000000" font-family="sans-serif" font-size="14" lengthAdjust="spacing" textLength="106.5654" x="707.5947" y="491.6201">Client AO Node</text><rect fill="#E2E2F0" height="30.2969" rx="2.5" ry="2.5" style="stroke:#181818;stroke-width:0.5;" width="163.8574" x="831.1602" y="50"/><text fill="#000000" font-family="sans-serif" font-size="14" lengthAdjust="spacing" textLength="149.8574" x="838.1602" y="69.9951">Respondent AO Node</text><rect fill="#E2E2F0" height="30.2969" rx="2.5" ry="2.5" style="stroke:#181818;stroke-width:0.5;" width="163.8574" x="831.1602" y="471.625"/><text fill="#000000" font-family="sans-serif" font-size="14" lengthAdjust="spacing" textLength="149.8574" x="838.1602" y="491.6201">Respondent AO Node</text><rect fill="#EEEEEE" height="3" style="stroke:#EEEEEE;stroke-width:1.0;" width="1000.0176" x="0" y="111.8633"/><line style="stroke:#000000;stroke-width:1.0;" x1="0" x2="1000.0176" y1="111.8633" y2="111.8633"/><line style="stroke:#000000;stroke-width:1.0;" x1="0" x2="1000.0176" y1="114.8633" y2="114.8633"/><rect fill="#EEEEEE" height="23.1328" style="stroke:#000000;stroke-width:2.0;" width="156.3716" x="421.823" y="101.2969"/><text fill="#000000" font-family="sans-serif" font-size="13" font-weight="bold" lengthAdjust="spacing" textLength="137.8457" x="427.823" y="117.3638">Client Registration</text><polygon fill="#181818" points="525.3008,151.5625,535.3008,155.5625,525.3008,159.5625,529.3008,155.5625" style="stroke:#181818;stroke-width:1.0;"/><line style="stroke:#181818;stroke-width:1.0;" x1="28.2651" x2="531.3008" y1="155.5625" y2="155.5625"/><text fill="#000000" font-family="sans-serif" font-size="13" lengthAdjust="spacing" textLength="180.959" x="35.2651" y="150.4966">RegisterClient(client_name)</text><polygon fill="#181818" points="748.8774,180.6953,758.8774,184.6953,748.8774,188.6953,752.8774,184.6953" style="stroke:#181818;stroke-width:1.0;"/><line style="stroke:#181818;stroke-width:1.0;" x1="537.3008" x2="754.8774" y1="184.6953" y2="184.6953"/><text fill="#000000" font-family="sans-serif" font-size="13" lengthAdjust="spacing" textLength="199.5767" x="544.3008" y="179.6294">Create new AO Node for Client</text><line style="stroke:#181818;stroke-width:1.0;" x1="537.3008" x2="579.3008" y1="213.8281" y2="213.8281"/><line style="stroke:#181818;stroke-width:1.0;" x1="579.3008" x2="579.3008" y1="213.8281" y2="226.8281"/><line style="stroke:#181818;stroke-width:1.0;" x1="538.3008" x2="579.3008" y1="226.8281" y2="226.8281"/><polygon fill="#181818" points="548.3008,222.8281,538.3008,226.8281,548.3008,230.8281,544.3008,226.8281" style="stroke:#181818;stroke-width:1.0;"/><text fill="#000000" font-family="sans-serif" font-size="13" lengthAdjust="spacing" textLength="150.1538" x="544.3008" y="208.7622">Record in Clients Table</text><line style="stroke:#181818;stroke-width:1.0;" x1="537.3008" x2="579.3008" y1="255.9609" y2="255.9609"/><line style="stroke:#181818;stroke-width:1.0;" x1="579.3008" x2="579.3008" y1="255.9609" y2="268.9609"/><line style="stroke:#181818;stroke-width:1.0;" x1="538.3008" x2="579.3008" y1="268.9609" y2="268.9609"/><polygon fill="#181818" points="548.3008,264.9609,538.3008,268.9609,548.3008,272.9609,544.3008,268.9609" style="stroke:#181818;stroke-width:1.0;"/><text fill="#000000" font-family="sans-serif" font-size="13" lengthAdjust="spacing" textLength="108.7544" x="544.3008" y="250.895">Update AuditLog</text><rect fill="#EEEEEE" height="3" style="stroke:#EEEEEE;stroke-width:1.0;" width="1000.0176" x="0" y="297.5273"/><line style="stroke:#000000;stroke-width:1.0;" x1="0" x2="1000.0176" y1="297.5273" y2="297.5273"/><line style="stroke:#000000;stroke-width:1.0;" x1="0" x2="1000.0176" y1="300.5273" y2="300.5273"/><rect fill="#EEEEEE" height="23.1328" style="stroke:#000000;stroke-width:2.0;" width="201.2813" x="399.3682" y="286.9609"/><text fill="#000000" font-family="sans-serif" font-size="13" font-weight="bold" lengthAdjust="spacing" textLength="182.7554" x="405.3682" y="303.0278">Respondent Registration</text><polygon fill="#181818" points="525.3008,337.2266,535.3008,341.2266,525.3008,345.2266,529.3008,341.2266" style="stroke:#181818;stroke-width:1.0;"/><line style="stroke:#181818;stroke-width:1.0;" x1="106.4414" x2="531.3008" y1="341.2266" y2="341.2266"/><text fill="#000000" font-family="sans-serif" font-size="13" lengthAdjust="spacing" textLength="406.8594" x="113.4414" y="336.1606">RegisterRespondent(respondent_name, age, sex, geolocation)</text><polygon fill="#181818" points="901.0889,366.3594,911.0889,370.3594,901.0889,374.3594,905.0889,370.3594" style="stroke:#181818;stroke-width:1.0;"/><line style="stroke:#181818;stroke-width:1.0;" x1="537.3008" x2="907.0889" y1="370.3594" y2="370.3594"/><text fill="#000000" font-family="sans-serif" font-size="13" lengthAdjust="spacing" textLength="239.7764" x="544.3008" y="365.2935">Create new AO Node for Respondent</text><line style="stroke:#181818;stroke-width:1.0;" x1="537.3008" x2="579.3008" y1="399.4922" y2="399.4922"/><line style="stroke:#181818;stroke-width:1.0;" x1="579.3008" x2="579.3008" y1="399.4922" y2="412.4922"/><line style="stroke:#181818;stroke-width:1.0;" x1="538.3008" x2="579.3008" y1="412.4922" y2="412.4922"/><polygon fill="#181818" points="548.3008,408.4922,538.3008,412.4922,548.3008,416.4922,544.3008,412.4922" style="stroke:#181818;stroke-width:1.0;"/><text fill="#000000" font-family="sans-serif" font-size="13" lengthAdjust="spacing" textLength="190.3535" x="544.3008" y="394.4263">Record in Respondents Table</text><line style="stroke:#181818;stroke-width:1.0;" x1="537.3008" x2="579.3008" y1="441.625" y2="441.625"/><line style="stroke:#181818;stroke-width:1.0;" x1="579.3008" x2="579.3008" y1="441.625" y2="454.625"/><line style="stroke:#181818;stroke-width:1.0;" x1="538.3008" x2="579.3008" y1="454.625" y2="454.625"/><polygon fill="#181818" points="548.3008,450.625,538.3008,454.625,548.3008,458.625,544.3008,454.625" style="stroke:#181818;stroke-width:1.0;"/><text fill="#000000" font-family="sans-serif" font-size="13" lengthAdjust="spacing" textLength="108.7544" x="544.3008" y="436.5591">Update AuditLog</text><!--SRC=[ZP5DQiCm48NtFiNWLGhE1G8k66-Rj8HqNQRIr0WSZP5KckDN6l_8JWbq8qllVJEU9w4AxA3j3TbGe1pEv0UsEWa3kc2K6T06A8zeB3IlyEPOaVSbe8UaRQcnLU9Eh4cWKKh7BPf_jC6pB2L5NKyTejCP7nm6mnRgkfZa_RFC0OS983SQEoMV3ujNUYe4YMYU9XQqZZ0GMFgPHu2lV1zpoT9TiTCGzwFluOAVFTrZxuDEFPjlRS8BTn9W5VK-nChw6oIRExTi9L05sCN5qws2ZhXd9HrppkqrFiwwUkw7UJFplyo_]--></g></svg>