<svg xmlns="http://www.w3.org/2000/svg" xmlns:xlink="http://www.w3.org/1999/xlink" contentStyleType="text/css" height="498px" preserveAspectRatio="none" style="width:1007px;height:498px;background:#FFFFFF;" version="1.1" viewBox="0 0 1007 498" width="1007px" zoomAndPan="magnify"><defs/><g><line style="stroke:#181818;stroke-width:0.5;stroke-dasharray:5.0,5.0;" x1="49" x2="49" y1="81.2969" y2="417.4922"/><line style="stroke:#181818;stroke-width:0.5;stroke-dasharray:5.0,5.0;" x1="373.9565" x2="373.9565" y1="81.2969" y2="417.4922"/><line style="stroke:#181818;stroke-width:0.5;stroke-dasharray:5.0,5.0;" x1="649.9688" x2="649.9688" y1="81.2969" y2="417.4922"/><text fill="#000000" font-family="sans-serif" font-size="14" lengthAdjust="spacing" textLength="83.8223" x="5" y="77.9951">Respondent</text><ellipse cx="49.9111" cy="13.5" fill="#E2E2F0" rx="8" ry="8" style="stroke:#181818;stroke-width:0.5;"/><path d="M49.9111,21.5 L49.9111,48.5 M36.9111,29.5 L62.9111,29.5 M49.9111,48.5 L36.9111,63.5 M49.9111,48.5 L62.9111,63.5 " fill="none" style="stroke:#181818;stroke-width:0.5;"/><text fill="#000000" font-family="sans-serif" font-size="14" lengthAdjust="spacing" textLength="83.8223" x="5" y="429.4873">Respondent</text><ellipse cx="49.9111" cy="441.2891" fill="#E2E2F0" rx="8" ry="8" style="stroke:#181818;stroke-width:0.5;"/><path d="M49.9111,449.2891 L49.9111,476.2891 M36.9111,457.2891 L62.9111,457.2891 M49.9111,476.2891 L36.9111,491.2891 M49.9111,476.2891 L62.9111,491.2891 " fill="none" style="stroke:#181818;stroke-width:0.5;"/><rect fill="#E2E2F0" height="30.2969" rx="2.5" ry="2.5" style="stroke:#181818;stroke-width:0.5;" width="163.8574" x="292.9565" y="50"/><text fill="#000000" font-family="sans-serif" font-size="14" lengthAdjust="spacing" textLength="149.8574" x="299.9565" y="69.9951">Respondent AO Node</text><rect fill="#E2E2F0" height="30.2969" rx="2.5" ry="2.5" style="stroke:#181818;stroke-width:0.5;" width="163.8574" x="292.9565" y="416.4922"/><text fill="#000000" font-family="sans-serif" font-size="14" lengthAdjust="spacing" textLength="149.8574" x="299.9565" y="436.4873">Respondent AO Node</text><rect fill="#E2E2F0" height="30.2969" rx="2.5" ry="2.5" style="stroke:#181818;stroke-width:0.5;" width="130.5801" x="584.9688" y="50"/><text fill="#000000" font-family="sans-serif" font-size="14" lengthAdjust="spacing" textLength="116.5801" x="591.9688" y="69.9951">Main AO Process</text><rect fill="#E2E2F0" height="30.2969" rx="2.5" ry="2.5" style="stroke:#181818;stroke-width:0.5;" width="130.5801" x="584.9688" y="416.4922"/><text fill="#000000" font-family="sans-serif" font-size="14" lengthAdjust="spacing" textLength="116.5801" x="591.9688" y="436.4873">Main AO Process</text><rect fill="#EEEEEE" height="3" style="stroke:#EEEEEE;stroke-width:1.0;" width="1000.9575" x="0" y="111.8633"/><line style="stroke:#000000;stroke-width:1.0;" x1="0" x2="1000.9575" y1="111.8633" y2="111.8633"/><line style="stroke:#000000;stroke-width:1.0;" x1="0" x2="1000.9575" y1="114.8633" y2="114.8633"/><rect fill="#EEEEEE" height="23.1328" style="stroke:#000000;stroke-width:2.0;" width="179.3818" x="410.7878" y="101.2969"/><text fill="#000000" font-family="sans-serif" font-size="13" font-weight="bold" lengthAdjust="spacing" textLength="160.856" x="416.7878" y="117.3638">Get Available Surveys</text><polygon fill="#181818" points="362.8853,151.5625,372.8853,155.5625,362.8853,159.5625,366.8853,155.5625" style="stroke:#181818;stroke-width:1.0;"/><line style="stroke:#181818;stroke-width:1.0;" x1="49.9111" x2="368.8853" y1="155.5625" y2="155.5625"/><text fill="#000000" font-family="sans-serif" font-size="13" lengthAdjust="spacing" textLength="144.9106" x="56.9111" y="150.4966">GetAvailableSurveys()</text><polygon fill="#181818" points="638.2588,180.6953,648.2588,184.6953,638.2588,188.6953,642.2588,184.6953" style="stroke:#181818;stroke-width:1.0;"/><line style="stroke:#181818;stroke-width:1.0;" x1="374.8853" x2="644.2588" y1="184.6953" y2="184.6953"/><text fill="#000000" font-family="sans-serif" font-size="13" lengthAdjust="spacing" textLength="159.1167" x="381.8853" y="179.6294">Request eligible surveys</text><line style="stroke:#181818;stroke-width:1.0;" x1="650.2588" x2="692.2588" y1="213.8281" y2="213.8281"/><line style="stroke:#181818;stroke-width:1.0;" x1="692.2588" x2="692.2588" y1="213.8281" y2="226.8281"/><line style="stroke:#181818;stroke-width:1.0;" x1="651.2588" x2="692.2588" y1="226.8281" y2="226.8281"/><polygon fill="#181818" points="661.2588,222.8281,651.2588,226.8281,661.2588,230.8281,657.2588,226.8281" style="stroke:#181818;stroke-width:1.0;"/><text fill="#000000" font-family="sans-serif" font-size="13" lengthAdjust="spacing" textLength="336.6987" x="657.2588" y="208.7622">Filter surveys based on respondent's demographics</text><polygon fill="#181818" points="385.8853,251.9609,375.8853,255.9609,385.8853,259.9609,381.8853,255.9609" style="stroke:#181818;stroke-width:1.0;"/><line style="stroke:#181818;stroke-width:1.0;" x1="379.8853" x2="649.2588" y1="255.9609" y2="255.9609"/><text fill="#000000" font-family="sans-serif" font-size="13" lengthAdjust="spacing" textLength="149.6777" x="391.8853" y="250.895">Return eligible surveys</text><rect fill="#EEEEEE" height="3" style="stroke:#EEEEEE;stroke-width:1.0;" width="1000.9575" x="0" y="284.5273"/><line style="stroke:#000000;stroke-width:1.0;" x1="0" x2="1000.9575" y1="284.5273" y2="284.5273"/><line style="stroke:#000000;stroke-width:1.0;" x1="0" x2="1000.9575" y1="287.5273" y2="287.5273"/><rect fill="#EEEEEE" height="23.1328" style="stroke:#000000;stroke-width:2.0;" width="201.1226" x="399.9175" y="273.9609"/><text fill="#000000" font-family="sans-serif" font-size="13" font-weight="bold" lengthAdjust="spacing" textLength="182.5967" x="405.9175" y="290.0278">Submit Survey Response</text><polygon fill="#181818" points="362.8853,324.2266,372.8853,328.2266,362.8853,332.2266,366.8853,328.2266" style="stroke:#181818;stroke-width:1.0;"/><line style="stroke:#181818;stroke-width:1.0;" x1="49.9111" x2="368.8853" y1="328.2266" y2="328.2266"/><text fill="#000000" font-family="sans-serif" font-size="13" lengthAdjust="spacing" textLength="300.9741" x="56.9111" y="323.1606">SubmitSurveyResponse(survey_id, responses)</text><line style="stroke:#181818;stroke-width:1.0;" x1="374.8853" x2="416.8853" y1="357.3594" y2="357.3594"/><line style="stroke:#181818;stroke-width:1.0;" x1="416.8853" x2="416.8853" y1="357.3594" y2="370.3594"/><line style="stroke:#181818;stroke-width:1.0;" x1="375.8853" x2="416.8853" y1="370.3594" y2="370.3594"/><polygon fill="#181818" points="385.8853,366.3594,375.8853,370.3594,385.8853,374.3594,381.8853,370.3594" style="stroke:#181818;stroke-width:1.0;"/><text fill="#000000" font-family="sans-serif" font-size="13" lengthAdjust="spacing" textLength="240.0112" x="381.8853" y="352.2935">Store responses in SurveyResponses</text><polygon fill="#181818" points="638.2588,395.4922,648.2588,399.4922,638.2588,403.4922,642.2588,399.4922" style="stroke:#181818;stroke-width:1.0;"/><line style="stroke:#181818;stroke-width:1.0;" x1="374.8853" x2="644.2588" y1="399.4922" y2="399.4922"/><text fill="#000000" font-family="sans-serif" font-size="13" lengthAdjust="spacing" textLength="251.3735" x="381.8853" y="394.4263">Update AuditLog with response details</text><!--SRC=[ZP71JiCm38RlUGfh5uO4Bp2fIBl0XG7Qn1cvZTLPwf8GkqEyFKdRjTiA4bVx_txxjx5I7s5B4hopvDG4ZCeL1tGAYwaEwrTuyPOMW78cpwLBP8FiilWj-ef4Edsk6LCKy4J9w8ZSODaGxDfuf6-1eZ1dW-uVhlnXbRaH6wZbhRcI9R0RlahyPqkYG0tNd2T9pvYkF-aUkL6AfowKA6J1EuYZyOs0fOEl8uOzLvF1RCCjQHlTV69ElMlB0-iGTq25_X6x1tlkX2rxvm-sTyEUGlBRBUPkwTCqCP2IN5hBtnTz3nQLODrQrcTVmnVhVhHA9zBq7Fa1]--></g></svg>