<svg xmlns="http://www.w3.org/2000/svg" xmlns:xlink="http://www.w3.org/1999/xlink" contentStyleType="text/css" height="396px" preserveAspectRatio="none" style="width:1014px;height:396px;background:#FFFFFF;" version="1.1" viewBox="0 0 1014 396" width="1014px" zoomAndPan="magnify"><defs/><g><line style="stroke:#181818;stroke-width:0.5;stroke-dasharray:5.0,5.0;" x1="30" x2="30" y1="81.2969" y2="316.0938"/><line style="stroke:#181818;stroke-width:0.5;stroke-dasharray:5.0,5.0;" x1="368.916" x2="368.916" y1="81.2969" y2="316.0938"/><line style="stroke:#181818;stroke-width:0.5;stroke-dasharray:5.0,5.0;" x1="767.689" x2="767.689" y1="81.2969" y2="316.0938"/><line style="stroke:#181818;stroke-width:0.5;stroke-dasharray:5.0,5.0;" x1="919.2544" x2="919.2544" y1="81.2969" y2="316.0938"/><text fill="#000000" font-family="sans-serif" font-size="14" lengthAdjust="spacing" textLength="44.8643" x="5" y="77.9951">Admin</text><ellipse cx="30.4321" cy="13.5" fill="#E2E2F0" rx="8" ry="8" style="stroke:#181818;stroke-width:0.5;"/><path d="M30.4321,21.5 L30.4321,48.5 M17.4321,29.5 L43.4321,29.5 M30.4321,48.5 L17.4321,63.5 M30.4321,48.5 L43.4321,63.5 " fill="none" style="stroke:#181818;stroke-width:0.5;"/><text fill="#000000" font-family="sans-serif" font-size="14" lengthAdjust="spacing" textLength="44.8643" x="5" y="328.0889">Admin</text><ellipse cx="30.4321" cy="339.8906" fill="#E2E2F0" rx="8" ry="8" style="stroke:#181818;stroke-width:0.5;"/><path d="M30.4321,347.8906 L30.4321,374.8906 M17.4321,355.8906 L43.4321,355.8906 M30.4321,374.8906 L17.4321,389.8906 M30.4321,374.8906 L43.4321,389.8906 " fill="none" style="stroke:#181818;stroke-width:0.5;"/><rect fill="#E2E2F0" height="30.2969" rx="2.5" ry="2.5" style="stroke:#181818;stroke-width:0.5;" width="130.5801" x="303.916" y="50"/><text fill="#000000" font-family="sans-serif" font-size="14" lengthAdjust="spacing" textLength="116.5801" x="310.916" y="69.9951">Main AO Process</text><rect fill="#E2E2F0" height="30.2969" rx="2.5" ry="2.5" style="stroke:#181818;stroke-width:0.5;" width="130.5801" x="303.916" y="315.0938"/><text fill="#000000" font-family="sans-serif" font-size="14" lengthAdjust="spacing" textLength="116.5801" x="310.916" y="335.0889">Main AO Process</text><rect fill="#E2E2F0" height="30.2969" rx="2.5" ry="2.5" style="stroke:#181818;stroke-width:0.5;" width="120.5654" x="707.689" y="50"/><text fill="#000000" font-family="sans-serif" font-size="14" lengthAdjust="spacing" textLength="106.5654" x="714.689" y="69.9951">Client AO Node</text><rect fill="#E2E2F0" height="30.2969" rx="2.5" ry="2.5" style="stroke:#181818;stroke-width:0.5;" width="120.5654" x="707.689" y="315.0938"/><text fill="#000000" font-family="sans-serif" font-size="14" lengthAdjust="spacing" textLength="106.5654" x="714.689" y="335.0889">Client AO Node</text><rect fill="#E2E2F0" height="30.2969" rx="2.5" ry="2.5" style="stroke:#181818;stroke-width:0.5;" width="163.8574" x="838.2544" y="50"/><text fill="#000000" font-family="sans-serif" font-size="14" lengthAdjust="spacing" textLength="149.8574" x="845.2544" y="69.9951">Respondent AO Node</text><rect fill="#E2E2F0" height="30.2969" rx="2.5" ry="2.5" style="stroke:#181818;stroke-width:0.5;" width="163.8574" x="838.2544" y="315.0938"/><text fill="#000000" font-family="sans-serif" font-size="14" lengthAdjust="spacing" textLength="149.8574" x="845.2544" y="335.0889">Respondent AO Node</text><rect fill="#EEEEEE" height="3" style="stroke:#EEEEEE;stroke-width:1.0;" width="1007.1118" x="0" y="111.8633"/><line style="stroke:#000000;stroke-width:1.0;" x1="0" x2="1007.1118" y1="111.8633" y2="111.8633"/><line style="stroke:#000000;stroke-width:1.0;" x1="0" x2="1007.1118" y1="114.8633" y2="114.8633"/><rect fill="#EEEEEE" height="23.1328" style="stroke:#000000;stroke-width:2.0;" width="133.4819" x="436.8149" y="101.2969"/><text fill="#000000" font-family="sans-serif" font-size="13" font-weight="bold" lengthAdjust="spacing" textLength="114.9561" x="442.8149" y="117.3638">Schema Update</text><polygon fill="#181818" points="357.2061,151.5625,367.2061,155.5625,357.2061,159.5625,361.2061,155.5625" style="stroke:#181818;stroke-width:1.0;"/><line style="stroke:#181818;stroke-width:1.0;" x1="30.4321" x2="363.2061" y1="155.5625" y2="155.5625"/><text fill="#000000" font-family="sans-serif" font-size="13" lengthAdjust="spacing" textLength="314.7739" x="37.4321" y="150.4966">UpdateSchemaVersion(schema_sql, description)</text><line style="stroke:#181818;stroke-width:1.0;" x1="369.2061" x2="411.2061" y1="184.6953" y2="184.6953"/><line style="stroke:#181818;stroke-width:1.0;" x1="411.2061" x2="411.2061" y1="184.6953" y2="197.6953"/><line style="stroke:#181818;stroke-width:1.0;" x1="370.2061" x2="411.2061" y1="197.6953" y2="197.6953"/><polygon fill="#181818" points="380.2061,193.6953,370.2061,197.6953,380.2061,201.6953,376.2061,197.6953" style="stroke:#181818;stroke-width:1.0;"/><text fill="#000000" font-family="sans-serif" font-size="13" lengthAdjust="spacing" textLength="341.415" x="376.2061" y="179.6294">Record new schema version in SchemaManagement</text><polygon fill="#181818" points="755.9717,222.8281,765.9717,226.8281,755.9717,230.8281,759.9717,226.8281" style="stroke:#181818;stroke-width:1.0;"/><line style="stroke:#181818;stroke-width:1.0;" x1="369.2061" x2="761.9717" y1="226.8281" y2="226.8281"/><text fill="#000000" font-family="sans-serif" font-size="13" lengthAdjust="spacing" textLength="374.7656" x="376.2061" y="221.7622">PropagateSchemaToNodes(schema_sql, schema_version)</text><polygon fill="#181818" points="908.1831,251.9609,918.1831,255.9609,908.1831,259.9609,912.1831,255.9609" style="stroke:#181818;stroke-width:1.0;"/><line style="stroke:#181818;stroke-width:1.0;" x1="369.2061" x2="914.1831" y1="255.9609" y2="255.9609"/><text fill="#000000" font-family="sans-serif" font-size="13" lengthAdjust="spacing" textLength="374.7656" x="376.2061" y="250.895">PropagateSchemaToNodes(schema_sql, schema_version)</text><line style="stroke:#181818;stroke-width:1.0;" x1="369.2061" x2="411.2061" y1="285.0938" y2="285.0938"/><line style="stroke:#181818;stroke-width:1.0;" x1="411.2061" x2="411.2061" y1="285.0938" y2="298.0938"/><line style="stroke:#181818;stroke-width:1.0;" x1="370.2061" x2="411.2061" y1="298.0938" y2="298.0938"/><polygon fill="#181818" points="380.2061,294.0938,370.2061,298.0938,380.2061,302.0938,376.2061,298.0938" style="stroke:#181818;stroke-width:1.0;"/><text fill="#000000" font-family="sans-serif" font-size="13" lengthAdjust="spacing" textLength="108.7544" x="376.2061" y="280.0278">Update AuditLog</text><!--SRC=[fL3BQWCn3BplLmmv9T3yG64BIwv9MlBeDGXRR0rPsxNSvlVZjPSipZKdIQEPOIHIqGLqUZ2syHIYKSQJZLZio5Xqd_WAJh780YGOiPgrkHfEDV7sJdCc5MWSQ-g1nJkhd-apd2LDs-AeVdWWdBsco6ZR9iV3-YC7mFkqARHl3cASNKgUBl9xVODcKS7ucF1LapMpzi3A1GtBDnG9_ei3qhfOxiXIpqEAz13FHoMBz19F_IF1oOsuL0ccVhAUGzJNlkPLFGFTdpPnw_ex]--></g></svg>