<svg xmlns="http://www.w3.org/2000/svg" xmlns:xlink="http://www.w3.org/1999/xlink" contentStyleType="text/css" height="456px" preserveAspectRatio="none" style="width:716px;height:456px;background:#FFFFFF;" version="1.1" viewBox="0 0 716 456" width="716px" zoomAndPan="magnify"><defs/><g><line style="stroke:#181818;stroke-width:0.5;stroke-dasharray:5.0,5.0;" x1="28" x2="28" y1="81.2969" y2="375.3594"/><line style="stroke:#181818;stroke-width:0.5;stroke-dasharray:5.0,5.0;" x1="330.9937" x2="330.9937" y1="81.2969" y2="375.3594"/><line style="stroke:#181818;stroke-width:0.5;stroke-dasharray:5.0,5.0;" x1="638.9424" x2="638.9424" y1="81.2969" y2="375.3594"/><text fill="#000000" font-family="sans-serif" font-size="14" lengthAdjust="spacing" textLength="40.5303" x="5" y="77.9951">Client</text><ellipse cx="28.2651" cy="13.5" fill="#E2E2F0" rx="8" ry="8" style="stroke:#181818;stroke-width:0.5;"/><path d="M28.2651,21.5 L28.2651,48.5 M15.2651,29.5 L41.2651,29.5 M28.2651,48.5 L15.2651,63.5 M28.2651,48.5 L41.2651,63.5 " fill="none" style="stroke:#181818;stroke-width:0.5;"/><text fill="#000000" font-family="sans-serif" font-size="14" lengthAdjust="spacing" textLength="40.5303" x="5" y="387.3545">Client</text><ellipse cx="28.2651" cy="399.1563" fill="#E2E2F0" rx="8" ry="8" style="stroke:#181818;stroke-width:0.5;"/><path d="M28.2651,407.1563 L28.2651,434.1563 M15.2651,415.1563 L41.2651,415.1563 M28.2651,434.1563 L15.2651,449.1563 M28.2651,434.1563 L41.2651,449.1563 " fill="none" style="stroke:#181818;stroke-width:0.5;"/><rect fill="#E2E2F0" height="30.2969" rx="2.5" ry="2.5" style="stroke:#181818;stroke-width:0.5;" width="120.5654" x="270.9937" y="50"/><text fill="#000000" font-family="sans-serif" font-size="14" lengthAdjust="spacing" textLength="106.5654" x="277.9937" y="69.9951">Client AO Node</text><rect fill="#E2E2F0" height="30.2969" rx="2.5" ry="2.5" style="stroke:#181818;stroke-width:0.5;" width="120.5654" x="270.9937" y="374.3594"/><text fill="#000000" font-family="sans-serif" font-size="14" lengthAdjust="spacing" textLength="106.5654" x="277.9937" y="394.3545">Client AO Node</text><rect fill="#E2E2F0" height="30.2969" rx="2.5" ry="2.5" style="stroke:#181818;stroke-width:0.5;" width="130.5801" x="573.9424" y="50"/><text fill="#000000" font-family="sans-serif" font-size="14" lengthAdjust="spacing" textLength="116.5801" x="580.9424" y="69.9951">Main AO Process</text><rect fill="#E2E2F0" height="30.2969" rx="2.5" ry="2.5" style="stroke:#181818;stroke-width:0.5;" width="130.5801" x="573.9424" y="374.3594"/><text fill="#000000" font-family="sans-serif" font-size="14" lengthAdjust="spacing" textLength="116.5801" x="580.9424" y="394.3545">Main AO Process</text><rect fill="#EEEEEE" height="3" style="stroke:#EEEEEE;stroke-width:1.0;" width="709.5225" x="0" y="111.8633"/><line style="stroke:#000000;stroke-width:1.0;" x1="0" x2="709.5225" y1="111.8633" y2="111.8633"/><line style="stroke:#000000;stroke-width:1.0;" x1="0" x2="709.5225" y1="114.8633" y2="114.8633"/><rect fill="#EEEEEE" height="23.1328" style="stroke:#000000;stroke-width:2.0;" width="122.418" x="293.5522" y="101.2969"/><text fill="#000000" font-family="sans-serif" font-size="13" font-weight="bold" lengthAdjust="spacing" textLength="103.8921" x="299.5522" y="117.3638">Create Survey</text><polygon fill="#181818" points="319.2764,151.5625,329.2764,155.5625,319.2764,159.5625,323.2764,155.5625" style="stroke:#181818;stroke-width:1.0;"/><line style="stroke:#181818;stroke-width:1.0;" x1="28.2651" x2="325.2764" y1="155.5625" y2="155.5625"/><text fill="#000000" font-family="sans-serif" font-size="13" lengthAdjust="spacing" textLength="279.0112" x="35.2651" y="150.4966">CreateSurvey(survey_data, target_criteria)</text><polygon fill="#181818" points="627.2324,180.6953,637.2324,184.6953,627.2324,188.6953,631.2324,184.6953" style="stroke:#181818;stroke-width:1.0;"/><line style="stroke:#181818;stroke-width:1.0;" x1="331.2764" x2="633.2324" y1="184.6953" y2="184.6953"/><text fill="#000000" font-family="sans-serif" font-size="13" lengthAdjust="spacing" textLength="255.6836" x="338.2764" y="179.6294">Store target criteria in SurveyMetadata</text><polygon fill="#181818" points="627.2324,209.8281,637.2324,213.8281,627.2324,217.8281,631.2324,213.8281" style="stroke:#181818;stroke-width:1.0;"/><line style="stroke:#181818;stroke-width:1.0;" x1="331.2764" x2="633.2324" y1="213.8281" y2="213.8281"/><text fill="#000000" font-family="sans-serif" font-size="13" lengthAdjust="spacing" textLength="271.3052" x="338.2764" y="208.7622">Fetch Standard Questions and Categories</text><line style="stroke:#181818;stroke-width:1.0;" x1="331.2764" x2="373.2764" y1="242.9609" y2="242.9609"/><line style="stroke:#181818;stroke-width:1.0;" x1="373.2764" x2="373.2764" y1="242.9609" y2="255.9609"/><line style="stroke:#181818;stroke-width:1.0;" x1="332.2764" x2="373.2764" y1="255.9609" y2="255.9609"/><polygon fill="#181818" points="342.2764,251.9609,332.2764,255.9609,342.2764,259.9609,338.2764,255.9609" style="stroke:#181818;stroke-width:1.0;"/><text fill="#000000" font-family="sans-serif" font-size="13" lengthAdjust="spacing" textLength="133.1992" x="338.2764" y="237.895">Store Survey Details</text><rect fill="#EEEEEE" height="3" style="stroke:#EEEEEE;stroke-width:1.0;" width="709.5225" x="0" y="284.5273"/><line style="stroke:#000000;stroke-width:1.0;" x1="0" x2="709.5225" y1="284.5273" y2="284.5273"/><line style="stroke:#000000;stroke-width:1.0;" x1="0" x2="709.5225" y1="287.5273" y2="287.5273"/><rect fill="#EEEEEE" height="23.1328" style="stroke:#000000;stroke-width:2.0;" width="127.8389" x="290.8418" y="273.9609"/><text fill="#000000" font-family="sans-serif" font-size="13" font-weight="bold" lengthAdjust="spacing" textLength="109.313" x="296.8418" y="290.0278">Publish Survey</text><polygon fill="#181818" points="319.2764,324.2266,329.2764,328.2266,319.2764,332.2266,323.2764,328.2266" style="stroke:#181818;stroke-width:1.0;"/><line style="stroke:#181818;stroke-width:1.0;" x1="28.2651" x2="325.2764" y1="328.2266" y2="328.2266"/><text fill="#000000" font-family="sans-serif" font-size="13" lengthAdjust="spacing" textLength="164.0361" x="35.2651" y="323.1606">PublishSurvey(survey_id)</text><polygon fill="#181818" points="627.2324,353.3594,637.2324,357.3594,627.2324,361.3594,631.2324,357.3594" style="stroke:#181818;stroke-width:1.0;"/><line style="stroke:#181818;stroke-width:1.0;" x1="331.2764" x2="633.2324" y1="357.3594" y2="357.3594"/><text fill="#000000" font-family="sans-serif" font-size="13" lengthAdjust="spacing" textLength="283.9561" x="338.2764" y="352.2935">Update SurveyMetadata (status: published)</text><!--SRC=[XP91IyD048Nl-oi6JorOCI9M0XKrLQ4sMetrAcDsZ0FfRjYTBVZltJGfMb4yXSnyxysyIR0Kwo2hcOoe1frmoGqQWRsk1XVtS6SrxG7w7cjVTz4SsRJWmjcIlD-mRKsfoGGoHoW4HN1h-e39HFN6exDlVf3sN8SD_ERneb5m7mHTHV9IEXPoZ4FrJHTTDjDJA68GwbdOiX1RdMLEWgtTx-9hal8zMg3Hw3Gy1FB2rdY81SZYNfLrJFw7U6V_RduVSngdSUqt1rY4rvhz-_yNwC7T4x3-8- -oqLzttQQ3WHUKu5DeEZEAydCoEgoKMjJnQotpEQp9-PWEaeEZmwFZW_6WG8626ZWSGvAaoMcQZ67vb47R7gh1pM8EtWPN4cZsulWrjDSPgXck4Hw34LvH2lSDcTdqTbk0AxDcPysg_RLcp_aNS78ykkHsObpTmNEkflI6ePQeAArcKyLqJzUZKpL7KmMieZSPbTdewpvYh_W4]--></g></svg>