<svg xmlns="http://www.w3.org/2000/svg" xmlns:xlink="http://www.w3.org/1999/xlink" contentStyleType="text/css" height="427px" preserveAspectRatio="none" style="width:615px;height:427px;background:#FFFFFF;" version="1.1" viewBox="0 0 615 427" width="615px" zoomAndPan="magnify"><defs/><g><line style="stroke:#181818;stroke-width:0.5;stroke-dasharray:5.0,5.0;" x1="28" x2="28" y1="81.2969" y2="346.2266"/><line style="stroke:#181818;stroke-width:0.5;stroke-dasharray:5.0,5.0;" x1="230.3516" x2="230.3516" y1="81.2969" y2="346.2266"/><line style="stroke:#181818;stroke-width:0.5;stroke-dasharray:5.0,5.0;" x1="538.3003" x2="538.3003" y1="81.2969" y2="346.2266"/><text fill="#000000" font-family="sans-serif" font-size="14" lengthAdjust="spacing" textLength="40.5303" x="5" y="77.9951">Client</text><ellipse cx="28.2651" cy="13.5" fill="#E2E2F0" rx="8" ry="8" style="stroke:#181818;stroke-width:0.5;"/><path d="M28.2651,21.5 L28.2651,48.5 M15.2651,29.5 L41.2651,29.5 M28.2651,48.5 L15.2651,63.5 M28.2651,48.5 L41.2651,63.5 " fill="none" style="stroke:#181818;stroke-width:0.5;"/><text fill="#000000" font-family="sans-serif" font-size="14" lengthAdjust="spacing" textLength="40.5303" x="5" y="358.2217">Client</text><ellipse cx="28.2651" cy="370.0234" fill="#E2E2F0" rx="8" ry="8" style="stroke:#181818;stroke-width:0.5;"/><path d="M28.2651,378.0234 L28.2651,405.0234 M15.2651,386.0234 L41.2651,386.0234 M28.2651,405.0234 L15.2651,420.0234 M28.2651,405.0234 L41.2651,420.0234 " fill="none" style="stroke:#181818;stroke-width:0.5;"/><rect fill="#E2E2F0" height="30.2969" rx="2.5" ry="2.5" style="stroke:#181818;stroke-width:0.5;" width="120.5654" x="170.3516" y="50"/><text fill="#000000" font-family="sans-serif" font-size="14" lengthAdjust="spacing" textLength="106.5654" x="177.3516" y="69.9951">Client AO Node</text><rect fill="#E2E2F0" height="30.2969" rx="2.5" ry="2.5" style="stroke:#181818;stroke-width:0.5;" width="120.5654" x="170.3516" y="345.2266"/><text fill="#000000" font-family="sans-serif" font-size="14" lengthAdjust="spacing" textLength="106.5654" x="177.3516" y="365.2217">Client AO Node</text><rect fill="#E2E2F0" height="30.2969" rx="2.5" ry="2.5" style="stroke:#181818;stroke-width:0.5;" width="130.5801" x="473.3003" y="50"/><text fill="#000000" font-family="sans-serif" font-size="14" lengthAdjust="spacing" textLength="116.5801" x="480.3003" y="69.9951">Main AO Process</text><rect fill="#E2E2F0" height="30.2969" rx="2.5" ry="2.5" style="stroke:#181818;stroke-width:0.5;" width="130.5801" x="473.3003" y="345.2266"/><text fill="#000000" font-family="sans-serif" font-size="14" lengthAdjust="spacing" textLength="116.5801" x="480.3003" y="365.2217">Main AO Process</text><rect fill="#EEEEEE" height="3" style="stroke:#EEEEEE;stroke-width:1.0;" width="608.8804" x="0" y="111.8633"/><line style="stroke:#000000;stroke-width:1.0;" x1="0" x2="608.8804" y1="111.8633" y2="111.8633"/><line style="stroke:#000000;stroke-width:1.0;" x1="0" x2="608.8804" y1="114.8633" y2="114.8633"/><rect fill="#EEEEEE" height="23.1328" style="stroke:#000000;stroke-width:2.0;" width="122.418" x="243.2312" y="101.2969"/><text fill="#000000" font-family="sans-serif" font-size="13" font-weight="bold" lengthAdjust="spacing" textLength="103.8921" x="249.2312" y="117.3638">Create Survey</text><polygon fill="#181818" points="218.6343,151.5625,228.6343,155.5625,218.6343,159.5625,222.6343,155.5625" style="stroke:#181818;stroke-width:1.0;"/><line style="stroke:#181818;stroke-width:1.0;" x1="28.2651" x2="224.6343" y1="155.5625" y2="155.5625"/><text fill="#000000" font-family="sans-serif" font-size="13" lengthAdjust="spacing" textLength="178.3691" x="35.2651" y="150.4966">CreateSurvey(survey_data)</text><polygon fill="#181818" points="526.5903,180.6953,536.5903,184.6953,526.5903,188.6953,530.5903,184.6953" style="stroke:#181818;stroke-width:1.0;"/><line style="stroke:#181818;stroke-width:1.0;" x1="230.6343" x2="532.5903" y1="184.6953" y2="184.6953"/><text fill="#000000" font-family="sans-serif" font-size="13" lengthAdjust="spacing" textLength="271.3052" x="237.6343" y="179.6294">Fetch Standard Questions and Categories</text><line style="stroke:#181818;stroke-width:1.0;" x1="230.6343" x2="272.6343" y1="213.8281" y2="213.8281"/><line style="stroke:#181818;stroke-width:1.0;" x1="272.6343" x2="272.6343" y1="213.8281" y2="226.8281"/><line style="stroke:#181818;stroke-width:1.0;" x1="231.6343" x2="272.6343" y1="226.8281" y2="226.8281"/><polygon fill="#181818" points="241.6343,222.8281,231.6343,226.8281,241.6343,230.8281,237.6343,226.8281" style="stroke:#181818;stroke-width:1.0;"/><text fill="#000000" font-family="sans-serif" font-size="13" lengthAdjust="spacing" textLength="133.1992" x="237.6343" y="208.7622">Store Survey Details</text><rect fill="#EEEEEE" height="3" style="stroke:#EEEEEE;stroke-width:1.0;" width="608.8804" x="0" y="255.3945"/><line style="stroke:#000000;stroke-width:1.0;" x1="0" x2="608.8804" y1="255.3945" y2="255.3945"/><line style="stroke:#000000;stroke-width:1.0;" x1="0" x2="608.8804" y1="258.3945" y2="258.3945"/><rect fill="#EEEEEE" height="23.1328" style="stroke:#000000;stroke-width:2.0;" width="127.8389" x="240.5208" y="244.8281"/><text fill="#000000" font-family="sans-serif" font-size="13" font-weight="bold" lengthAdjust="spacing" textLength="109.313" x="246.5208" y="260.895">Publish Survey</text><polygon fill="#181818" points="218.6343,295.0938,228.6343,299.0938,218.6343,303.0938,222.6343,299.0938" style="stroke:#181818;stroke-width:1.0;"/><line style="stroke:#181818;stroke-width:1.0;" x1="28.2651" x2="224.6343" y1="299.0938" y2="299.0938"/><text fill="#000000" font-family="sans-serif" font-size="13" lengthAdjust="spacing" textLength="164.0361" x="35.2651" y="294.0278">PublishSurvey(survey_id)</text><polygon fill="#181818" points="526.5903,324.2266,536.5903,328.2266,526.5903,332.2266,530.5903,328.2266" style="stroke:#181818;stroke-width:1.0;"/><line style="stroke:#181818;stroke-width:1.0;" x1="230.6343" x2="532.5903" y1="328.2266" y2="328.2266"/><text fill="#000000" font-family="sans-serif" font-size="13" lengthAdjust="spacing" textLength="283.9561" x="237.6343" y="323.1606">Update SurveyMetadata (status: published)</text><!--SRC=[XP3D2i9038Jl-nJ1Ktlm1GeLfE9DhHJF4hj10sMtR5B1jtVxWrf1F2qxV9cP16lr0Og6oQbfCIZNtA9JM8mQh0-mzvOMW39X_NUExf1T3vR1roGoiBrcJ9v34GYLeEh2dHwGvsOoNgu-_22Rk15BP7ZE5XLJyu75eI4iWorfVODAqLaC5euTYR9t0b608ZfTVM2Ih-5POXLNVnNRa28tCbGkkql3SllVUGBdfTd-g7ngxViIkvZNhmU9A6ed6RIZ6Tdq2G00]--></g></svg>